<svg xmlns="http://www.w3.org/2000/svg" viewBox="0 0 1800 1500" aria-hidden="true">
  <path fill="#2DBC84" opacity=".09" d="M205 54c77-52 143-9 215 9 80 20 129-49 219-54 97-5 168 54 180 152 13 101-37 159-131 197-91 37-101 88-96 173 5 97-47 158-150 181-127 29-292-12-381-96-69-65-84-174-20-236 54-53 138-50 158-174 9-56 2-112 6-152z"/>
  <path fill="#FFAC00" opacity=".09" d="M10 1347c-60-137 71-176 187-176-102-55-173-164-139-240 47-107 245-67 402 7 156 73 284 183 272 288-11 96-122 108-251 88 101 65 202 161 168 246-57 143-316 58-458-13C105 1504 39 1414 10 1347z"/>
  <path fill="#0C55CA" opacity=".08" d="M836 1087c20-169 181-285 365-279 160 5 246 104 248 252 2 160-70 267-209 283-125 14-207-26-258-102-42-62-97-76-174-86-49-6-79-39-72-68z"/>
  <path fill="#F54750" opacity=".08" d="M1268 1498c-23-174 78-209 205-250 111-36 204-100 287-56 105 56 127 195 129 306h-621z"/>
  <path fill="none" stroke="#FFAC00" stroke-width="48" stroke-linecap="round" opacity=".16" d="M834 317c63-33 16-118 77-153 62-36 113 66 178 43 63-23 26-122 74-151 65-38 88 76 158 52"/>
  <path fill="none" stroke="#2DBC84" stroke-width="28" stroke-linecap="round" stroke-linejoin="round" opacity=".15" d="m1186 398 62-117 68 117"/>
  <path fill="none" stroke="#171717" stroke-width="23" stroke-linecap="round" opacity=".11" d="M1398 242c157-64 314-22 359 101 72 199-235 391-391 285-111-76-11-222 212-216 88 2 171 18 241 50"/>
  <g fill="none" stroke="#E264C0" stroke-width="24" stroke-linecap="round" opacity=".16">
    <path d="M1696 538h76"/>
    <path d="m1709 493 51 50"/>
    <path d="m1758 493-49 92"/>
    <path d="m1784 525-81 16"/>
    <path d="m1734 590 18-68"/>
  </g>
  <path fill="#FFAC00" opacity=".15" d="m1587 828 43 77 88-25-56 72 53 76-84-29-58 68 9-88-79-42 90-20 26-86c5-17 12-18 18-3z"/>
  <path fill="#0C55CA" opacity=".13" d="M742 562c34-48 102-48 134-4 20 28-3 66-31 51-22-12-28-32-36-13-8 20 13 38-9 51-28 16-49-27-66-24-22 4 7 42-25 47-31 5-38-61 33-108z"/>
  <g fill="none" stroke="#F54750" stroke-width="16" stroke-linecap="round" opacity=".15">
    <path d="M1012 593c0 33 41 33 41 0"/>
    <path d="M965 664c0 34 42 34 42 0"/>
    <path d="M1047 659c0 34 42 34 42 0"/>
    <path d="M930 738c0 34 42 34 42 0"/>
    <path d="M1010 734c0 34 42 34 42 0"/>
    <path d="M1092 738c0 34 42 34 42 0"/>
  </g>
</svg>
