<svg xmlns="http://www.w3.org/2000/svg" width="54" height="54" viewBox="0 0 54 54" role="img" aria-hidden="true">
  <circle cx="27" cy="27" r="24" fill="#2DBC84"/>
  <path d="M18 24.5c1.1-2 3.1-3.1 5.4-3.1h7.2c2.3 0 4.3 1.1 5.4 3.1l2.1 4a5 5 0 0 1-1.5 6.3 4.8 4.8 0 0 1-6.3-.8l-1.1-1.3h-4.4L23.7 34a4.8 4.8 0 0 1-6.3.8 5 5 0 0 1-1.5-6.3l2.1-4Z" fill="#fff"/>
  <path d="M22 26.2v5.2m-2.6-2.6h5.2" fill="none" stroke="#2DBC84" stroke-width="2.2" stroke-linecap="round"/>
  <circle cx="31.7" cy="28.2" r="1.6" fill="#2DBC84"/>
  <circle cx="35.1" cy="30.9" r="1.6" fill="#2DBC84"/>
</svg>
